<svg xmlns="http://www.w3.org/2000/svg" version="1.0" width="48" height="48" viewBox="0 0 48 48"><g fill="currentColor"><path d="M4.8.413C4.162.75 4.125 2.287 4.125 24c0 22.575.038 23.25.712 23.625 1.013.525 37.313.525 38.325 0 .675-.375.712-1.05.712-23.625S43.838.75 43.162.375C42.15-.15 5.7-.112 4.8.413zm32.625 13.05c.075 5.325-.038 7.8-.338 8.137-.6.712-25.425.788-26.138.075-.488-.488-.675-15.337-.188-15.788.15-.15 6.15-.225 13.388-.188l13.163.112.112 7.65zm-14.55 15.225c0 1.537-.938 2.213-1.688 1.2-.675-.938-8.625-.938-9.6-.038-1.013.938-1.838.413-1.838-1.163v-1.313h13.125v1.313zm5.063 1.875v1.5h-3.375l-.113-1.613-.112-1.612 1.8.112 1.8.112v1.5zm5.063 0v1.687h-3.375v-3.375H33v1.688zm5.25 0v1.687h-3.375v-3.375h3.375v1.688zm-17.813 5.625v6h-7.875l-.113-6.113-.075-6.113 4.012.112 4.05.112v6zm7.238-2.1c.3.188.45.862.375 1.763l-.112 1.462h-3.375l-.114-1.463c-.15-1.612.3-2.1 1.8-2.1.525 0 1.163.15 1.425.338zm5.25 1.65.112 1.8-1.612-.112c-1.537-.112-1.612-.188-1.725-1.35-.188-1.987.112-2.4 1.688-2.25 1.425.112 1.425.112 1.537 1.912zm5.137-.112v1.688l-1.575.112-1.612.112v-1.65c0-1.987.188-2.213 1.875-2.063 1.275.112 1.313.15 1.313 1.8zm-10.125 5.063v1.5l-1.763.112-1.8.112V40.95c0-1.838.188-2.025 2.063-1.875 1.5.112 1.5.112 1.5 1.612zm5.063 0v1.688h-3.375v-1.425c0-.788.112-1.575.262-1.688.112-.15.9-.262 1.688-.262H33v1.688zm5.175.075.112 1.612h-3.413v-3.412l1.612.112c1.575.112 1.575.112 1.688 1.688z"/><path d="M15.188 9.75c-.488.788-2.4 7.275-2.213 7.575.413.675 1.688.262 2.025-.637.262-.712.637-.938 1.462-.938s1.125.188 1.313.938c.188.675.488.938 1.163.938 1.2 0 1.2-.45-.15-4.688-1.013-3.225-1.087-3.375-2.175-3.488-.637-.075-1.275.075-1.425.3zm1.688 3.45c0 .375-.262.675-.563.675-.637 0-.675-.15-.3-1.425.15-.675.3-.75.525-.375.188.262.338.788.338 1.125zm2.7-3c.075.563.413.9.938.975.788.112.825.338.938 3.188.112 3 .15 3.075 1.05 3.075s.938-.075 1.05-3.075c.112-3.037.112-3.075 1.125-3.188.712-.075 1.013-.338 1.013-.862 0-.675-.3-.75-3.113-.862-3.075-.112-3.113-.075-3 .75zm6.9 2.063c-.413 4.95-.338 5.438.637 5.287.75-.112.862-.375 1.013-2.55l.188-2.438.486 1.688c1.2 4.275 2.063 4.463 3.338.75.637-1.95.788-2.213.825-1.313.038.6.15 1.763.262 2.513.225 1.2.413 1.425 1.163 1.425h.938l-.262-3.863c-.15-2.1-.338-3.938-.45-4.125-.075-.15-.637-.262-1.237-.262-1.013 0-1.125.188-1.725 2.138-.675 2.25-1.275 3.338-1.275 2.325 0-.338-.262-1.462-.563-2.513-.563-1.838-.675-1.95-1.838-1.95h-1.237l-.262 2.888z"/></g></svg>
