<svg xmlns="http://www.w3.org/2000/svg" fill="none" viewBox="0 0 32 32" stroke-width="2" stroke="currentColor" width="32" height="32"><path stroke-linecap="round" stroke-linejoin="round" d="M9.103 8.233A3.08 3.08 0 0 1 6.915 9.64c-.507.072-1.009.149-1.512.233C3.999 10.107 3 11.343 3 12.765V24a3 3 0 0 0 3 3h20a3 3 0 0 0 3-3V12.765c0-1.423-1-2.659-2.403-2.892a63.82 63.82 0 0 0-1.512-.233 3.08 3.08 0 0 1-2.187-1.407l-1.096-1.755a2.923 2.923 0 0 0-2.315-1.385 65.032 65.032 0 0 0-6.976 0 2.923 2.923 0 0 0-2.315 1.385L9.101 8.233z"/><path stroke-linecap="round" stroke-linejoin="round" d="M22 17a6 6 0 1 1-12 0 6 6 0 0 1 12 0zm3-3h.011v.011H25V14z"/></svg>
