<svg xmlns="http://www.w3.org/2000/svg" fill="none" viewBox="0 0 32 32" stroke-width="2" stroke="currentColor" width="32" height="32"><path stroke-linecap="round" stroke-linejoin="round" d="M11 10V8.144c0-1.513 1.127-2.797 2.635-2.923.497-.04.997-.076 1.497-.107M21 24h3a3 3 0 0 0 3-3V8.144c0-1.513-1.127-2.797-2.635-2.923a64.565 64.565 0 0 0-1.497-.107M21 25v-2.5a4.5 4.5 0 0 0-4.5-4.5h-2a1.5 1.5 0 0 1-1.5-1.5v-2A4.5 4.5 0 0 0 8.5 10H7m15.867-4.885A3.001 3.001 0 0 0 20 3h-2a3.001 3.001 0 0 0-2.867 2.115m7.733 0c.087.28.133.577.133.885v1h-8V6c0-.308.047-.605.133-.885M9 10H6.5A1.5 1.5 0 0 0 5 11.5v16A1.5 1.5 0 0 0 6.5 29h13a1.5 1.5 0 0 0 1.5-1.5V22A12 12 0 0 0 9 10z"/></svg>
