<svg width="32" height="32" viewBox="120.639 102.4 1397.122 1433.6" xmlns="http://www.w3.org/2000/svg"><path fill="currentColor" d="M961.126 102.4a51.2 51.2 0 0 1 48.742 35.533l56.32 175.002c23.654 11.571 46.285 24.576 67.891 39.219l179.814-38.707a51.2 51.2 0 0 1 55.091 24.576l141.928 245.657a51.2 51.2 0 0 1-6.451 60.006l-123.392 136.192a571.392 571.392 0 0 1 0 78.438l123.392 136.397a51.2 51.2 0 0 1 6.451 60.006l-141.926 245.76a51.2 51.2 0 0 1-55.091 24.474l-179.815-38.707c-21.504 14.541-44.237 27.648-67.789 39.219l-56.422 175.002A51.2 51.2 0 0 1 961.126 1536H677.274a51.2 51.2 0 0 1-48.742-35.533l-56.218-174.899a562.586 562.586 0 0 1-68.096-39.424l-179.712 38.81a51.2 51.2 0 0 1-55.091-24.576L127.488 1054.72a51.2 51.2 0 0 1 6.451-60.006l123.392-136.397a571.392 571.392 0 0 1 0-78.234L133.939 643.686a51.2 51.2 0 0 1-6.451-60.006l141.926-245.76a51.2 51.2 0 0 1 55.091-24.474l179.712 38.81c21.709-14.643 44.442-27.853 68.096-39.424l56.32-174.899a51.2 51.2 0 0 1 48.538-35.533h283.853zm-37.478 102.4H714.752l-58.163 180.941-39.219 19.149a470.581 470.581 0 0 0-55.706 32.154l-36.25 24.576-185.958-40.141-104.448 181.043 127.488 141.107-3.072 43.418a468.992 468.992 0 0 0 0 64.307l3.072 43.418-127.693 141.107 104.55 181.043 185.958-40.038 36.25 24.474a470.581 470.581 0 0 0 55.706 32.154l39.219 19.149 58.266 180.939h209.101l58.368-181.043 39.117-19.046a461.251 461.251 0 0 0 55.603-32.154l36.147-24.474 186.061 40.038 104.448-181.043-127.59-141.107 3.072-43.418a468.992 468.992 0 0 0 0-64.41l-3.072-43.418L1403.7 602.52l-104.55-181.043-186.061 39.936-36.147-24.371a460.186 460.186 0 0 0-55.603-32.154l-39.117-19.046L923.75 204.8zM819.2 512a307.2 307.2 0 1 1 0 614.4 307.2 307.2 0 0 1 0-614.4zm0 102.4a204.8 204.8 0 1 0 0 409.6 204.8 204.8 0 0 0 0-409.6z"/></svg>
