<svg fill="currentColor" height="32" width="32" xmlns="http://www.w3.org/2000/svg" viewBox="0 0 53.362 53.362" xml:space="preserve"><g stroke-width="0"/><g stroke-linecap="round" stroke-linejoin="round"/><path d="M35.496 10.248a17.748 6.82 0 0 1-17.748 6.82A17.748 6.82 0 0 1 0 10.248a17.748 6.82 0 0 1 35.496 0z"/><path d="M17.748 23.814c9.802 0 17.748-3.053 17.748-6.82 0-.59-.195-1.163-.562-1.709-.069-.102-.252-.274-.575-.042-.991.767-1.909 1.194-3.434 1.78-3.548 1.363-8.227 2.114-13.177 2.114s-9.63-.751-13.177-2.114c-1.525-.586-2.606-1.132-3.597-1.9-.188-.142-.35.069-.421.176-.361.542-.553 1.11-.553 1.696 0 3.766 7.946 6.82 17.748 6.82zM22.8 39.325c-.009-.061-.027-.188-.198-.167-1.521.154-3.246.217-4.854.217-4.95 0-9.63-.751-13.177-2.114-1.525-.586-2.395-.98-3.385-1.747-.311-.175-.64.026-.738.19C.155 36.196 0 36.707 0 37.233c0 3.766 7.946 6.82 17.748 6.82 2.122 0 4.77-.118 6.657-.38.165-.045.124-.188.077-.261-.696-1.081-1.474-2.65-1.683-4.087zm-5.052-2.018c2.05 0 3.292-.099 4.285-.2.276-.039.288-.207.288-.297a15.152 15.152 0 0 1 .541-4.022c.041-.151.158-.45-.169-.416-1.685.191-3.146.259-4.944.259-4.95 0-9.63-.751-13.177-2.114-1.525-.586-2.349-.948-3.339-1.715-.474-.326-.686-.006-.784.158C.155 29.45 0 29.962 0 30.487c0 3.766 7.946 6.82 17.748 6.82z"/><path d="M27.322 25.377c.174-.156.578-.54.031-.489-3.014.764-5.948.994-9.604.994-4.95 0-9.63-.751-13.177-2.114-1.525-.586-2.487-1.045-3.477-1.813-.336-.229-.495.018-.576.143-.338.526-.518 1.076-.518 1.641 0 3.766 7.946 6.82 17.748 6.82 2.088 0 3.695-.086 5.556-.341.405-.062.515-.308.575-.433.84-1.733 1.995-3.115 3.442-4.41zm12.952 9.754c-1.553-.623-2.002-.999-2.002-1.679 0-.544.412-1.18 1.574-1.18 1.028 0 1.816.405 1.823.409a.576.576 0 0 0 .268.068.54.54 0 0 0 .506-.347l.282-.722a.447.447 0 0 0-.241-.574c-.633-.275-1.869-.488-1.882-.491-.02-.004-.089-.018-.089-.099l-.004-1.047a.58.58 0 0 0-.586-.572h-.506a.58.58 0 0 0-.586.572l.001 1.1c0 .084-.091.121-.125.129-1.561.372-2.536 1.515-2.536 2.957 0 1.798 1.486 2.61 3.09 3.22 1.283.504 1.806 1.014 1.806 1.763 0 .815-.741 1.384-1.803 1.384-.906 0-2.133-.575-2.146-.58a.573.573 0 0 0-.247-.056.548.548 0 0 0-.518.36l-.27.73a.474.474 0 0 0 .24.592c.753.392 2.211.622 2.276.632.017.003.106.034.106.115v1.096a.58.58 0 0 0 .586.572h.523a.581.581 0 0 0 .587-.572v-1.153c0-.108.08-.117.096-.121 1.663-.373 2.687-1.59 2.687-3.117 0-1.569-.871-2.583-2.912-3.389z"/><path d="M39.62 22.45c-7.59 0-13.742 6.152-13.742 13.742S32.03 49.934 39.62 49.934c7.589 0 13.741-6.153 13.741-13.742 0-7.589-6.152-13.742-13.741-13.742zm0 24.298c-5.831 0-10.557-4.727-10.557-10.557s4.726-10.557 10.557-10.557c5.83 0 10.556 4.727 10.556 10.557S45.45 46.748 39.62 46.748z"/></svg>
