<svg width="48" height="48" viewBox="0 0 24 24" xmlns="http://www.w3.org/2000/svg" fill="currentColor"><g stroke-width="0"/><g stroke-linecap="round" stroke-linejoin="round"/><g/><path d="M21.597 4.803H2.405a1.2 1.2 0 0 0-1.199 1.199v11.995c0 .663.537 1.199 1.199 1.199h19.192a1.197 1.197 0 0 0 1.199-1.199V6.003a1.2 1.2 0 0 0-1.199-1.199zM2.004 8.002h19.992v1.6H2.004v-1.6zm19.992 9.996a.401.401 0 0 1-.401.401H2.405a.401.401 0 0 1-.401-.401v-7.597h19.992v7.596zM2.004 7.202V6.003c0-.22.178-.401.401-.401h19.192c.22 0 .401.178.401.401v1.199H2.004z"/><path d="M3.603 15.997H11.6v.8H3.603v-.8zm0-2.398h4.798v.8H3.603v-.8zm14.384 3.2h1.624a.782.782 0 0 0 .788-.776v-.048a.782.782 0 0 0-.788-.776h-1.624a.782.782 0 0 0-.788.776v.048a.78.78 0 0 0 .788.776z"/></svg>
