<svg class="mx-auto" width="151" height="151" viewBox="0 0 151 151" fill="none"
     xmlns="http://www.w3.org/2000/svg">
    <path
        d="M107.941 116.789C106.313 116.789 104.992 118.11 104.992 119.738C104.992 121.366 106.313 122.688 107.941 122.688C109.569 122.688 110.891 121.366 110.891 119.738C110.891 118.11 109.569 116.789 107.941 116.789Z"
        fill="#FFAA00"/>
    <path
        d="M115.203 107.252L101.185 102.581L96.1531 92.5158C100.687 87.9015 103.834 81.796 104.896 75.4277L105.523 71.666H110.891C115.769 71.666 119.738 67.697 119.738 62.8184V44.2383C119.738 19.8453 99.893 0 75.5 0C51.0445 0 31.2617 19.7884 31.2617 44.2383V62.8184C31.2617 66.663 33.7276 69.9413 37.1602 71.1587V74.6152C37.1602 79.4938 41.1292 83.4629 46.0078 83.4629H48.5978C49.8763 86.2402 51.5311 88.8125 53.5448 91.1232C53.9624 91.6033 54.398 92.0687 54.8443 92.5214L49.8147 102.581L35.7967 107.252C19.4979 112.687 7.66797 129.846 7.66797 148.051C7.66797 149.68 8.98833 151 10.6172 151H140.383C142.011 151 143.332 149.68 143.332 148.051C143.332 129.846 131.502 112.687 115.203 107.252ZM113.84 62.8184C113.84 64.4446 112.517 65.7676 110.891 65.7676H106.39C107.139 59.9606 107.639 53.7811 107.84 47.6948C107.846 47.5231 107.85 47.3562 107.856 47.1875H113.84V62.8184ZM40.1094 65.7676C38.4832 65.7676 37.1602 64.4446 37.1602 62.8184V47.1875H43.1465C43.1562 47.4951 43.1665 47.8042 43.178 48.1153C43.1783 48.1259 43.1789 48.1363 43.1792 48.1469C43.1792 48.1478 43.1792 48.1486 43.1792 48.1495C43.3857 54.0692 43.8788 60.0883 44.6114 65.7673H40.1094V65.7676ZM46.0078 77.5645C44.3816 77.5645 43.0586 76.2414 43.0586 74.6152V71.666H45.4764L46.104 75.4289C46.2237 76.1441 46.3709 76.8566 46.541 77.5645H46.0078ZM43.0636 41.2891H37.2722C38.766 21.5231 55.2616 5.89844 75.5 5.89844C95.6485 5.89844 112.217 21.521 113.727 41.2891H107.937C107.724 25.0014 94.4608 11.7969 78.1398 11.7969H72.8607C56.5401 11.7969 43.2757 25.0014 43.0636 41.2891ZM72.8605 17.6953H78.1396C91.3547 17.6953 102.051 28.5045 102.043 41.7049C102.043 42.633 102.036 43.4411 102.02 44.1763C102.02 44.1858 102.02 44.1955 102.02 44.2053L98.3308 43.6782C88.3093 42.2473 78.8471 37.5161 71.687 30.356C71.1337 29.803 70.3837 29.4922 69.6016 29.4922C61.6811 29.4922 54.0993 33.1009 49.0874 39.1975C50.3225 27.1886 60.4746 17.6953 72.8605 17.6953ZM52.6553 77.5645C51.179 72.6531 49.4897 58.2019 49.1163 48.9414L53.0856 43.6487C56.7312 38.7896 62.4028 35.7705 68.436 35.424C76.3744 42.9787 86.6442 47.9676 97.4967 49.5171L101.839 50.1376C101.548 56.297 100.955 62.478 100.106 68.1626C100.105 68.1644 100.105 68.1665 100.105 68.1685C99.8346 69.9962 99.6217 71.1723 99.0778 74.4575C97.5159 83.8256 90.5257 92.2973 81.2979 94.6045C77.5002 95.5526 73.4992 95.5523 69.7036 94.6045C63.9417 93.1641 58.6585 89.1773 55.2489 83.4629H61.2612C62.4786 86.8955 65.7567 89.3613 69.6016 89.3613H75.5C80.3883 89.3613 84.3477 85.4023 84.3477 80.5137C84.3477 75.6351 80.3786 71.666 75.5 71.666H69.6016C65.6711 71.666 62.4415 74.2047 61.2562 77.5645H52.6553ZM69.3535 100.573C71.3764 100.999 73.4388 101.217 75.5 101.217C77.1135 101.217 78.7273 101.082 80.3229 100.82L75.1116 106.331L69.3535 100.573ZM71.057 110.619L61.7027 120.511C59.1274 115.582 56.9146 110.452 55.0997 105.2L58.6125 98.1742L71.057 110.619ZM91.8876 97.175L95.8998 105.2C94.0819 110.46 91.8685 115.592 89.2959 120.516L79.2838 110.504L91.8876 97.175ZM66.6523 80.5137C66.6523 78.8854 67.973 77.5645 69.6016 77.5645H75.5C77.1262 77.5645 78.4492 78.8875 78.4492 80.5137C78.4492 82.1422 77.1283 83.4629 75.5 83.4629H69.6016C67.9754 83.4629 66.6523 82.1399 66.6523 80.5137ZM13.6844 145.102C14.8532 130.491 24.5764 117.212 37.6621 112.848L50.0766 108.711C52.351 115 55.1687 121.113 58.4709 126.919C58.4765 126.929 58.4818 126.939 58.4874 126.949C58.4874 126.949 58.4877 126.949 58.4877 126.95C60.9005 131.193 63.6161 135.34 66.5603 139.277L70.1885 145.102H13.6844ZM75.5 142.473L71.5003 136.051C71.4554 135.979 71.4077 135.909 71.3569 135.842C68.9687 132.656 66.7408 129.324 64.7118 125.914L75.2296 114.791L86.3121 125.874C84.2695 129.309 82.034 132.654 79.6436 135.841C79.4991 136.034 79.7041 135.73 75.5 142.473ZM80.8115 145.102L84.4394 139.277C87.3966 135.325 90.1317 131.145 92.5686 126.852C92.5833 126.826 92.5972 126.799 92.612 126.773C92.6137 126.77 92.6155 126.767 92.6173 126.764C95.8776 121.013 98.6658 114.953 100.923 108.711L113.338 112.848C126.424 117.212 136.147 130.491 137.316 145.102H80.8115Z"
        fill="#FFAA00"/>
    <path
        d="M128.453 133.167C126.482 129.221 123.595 125.717 120.104 123.031C118.813 122.037 116.961 122.279 115.968 123.57C114.975 124.861 115.216 126.713 116.507 127.706C119.295 129.851 121.601 132.651 123.176 135.803C123.905 137.262 125.678 137.85 127.132 137.123C128.589 136.395 129.18 134.624 128.453 133.167Z"
        fill="#FFAA00"/>
</svg>
