<svg width="32" height="27.077" viewBox="0 0 32 27.077" fill="none" xmlns="http://www.w3.org/2000/svg"><path fill-rule="evenodd" clip-rule="evenodd" d="m8.288.633 1.521 5.541-9.12-.628c-.026 0-.048-.068-.074-.065L8.288.631Zm23.097 5.042h-9.14L23.732.633l7.654 5.042Z" fill="#FA0"/><path fill-rule="evenodd" clip-rule="evenodd" d="M22.21 6.174H9.809L8.288.633h15.444l-1.521 5.541Z" fill="#FA0"/><path opacity=".2" fill-rule="evenodd" clip-rule="evenodd" d="M22.21 6.174H9.809L8.288.633h15.444l-1.521 5.541Z" fill="#000"/><path fill-rule="evenodd" clip-rule="evenodd" d="m22.242 5.675-6.119 20.809L9.829 5.546l12.414.129Z" fill="#FA0"/><path fill-rule="evenodd" clip-rule="evenodd" d="m9.83 5.546 6.293 20.938L.689 5.546H9.83Z" fill="#FA0"/><path opacity=".35" fill-rule="evenodd" clip-rule="evenodd" d="m9.83 5.546 6.293 20.938L.689 5.546H9.83Z" fill="#000"/><path fill-rule="evenodd" clip-rule="evenodd" d="M22.244 5.675h9.141L16.123 26.484l6.121-20.809Z" fill="#FA0"/><path opacity=".1" fill-rule="evenodd" clip-rule="evenodd" d="M22.244 5.675h9.141L16.123 26.484l6.121-20.809Z" fill="#000"/></svg>
