<svg width="32" height="34.462" viewBox="0 0 32 34.462" fill="none" xmlns="http://www.w3.org/2000/svg"><path d="M1.897 12.133v18.101c0 1.658 1.148 3.015 2.564 3.015h23.077c1.417 0 2.565-1.358 2.565-3.015V12.132H1.895Z" fill="#E39601"/><path d="M1.897 10.626v18.1c0 1.659 1.148 3.015 2.564 3.015h23.077c1.417 0 2.565-1.356 2.565-3.015v-18.1H1.895Z" fill="#FA0"/><path d="M3.179 7.609c-1.415 0-2.564 1.357-2.564 3.015v3.018h30.769v-3.017c0-1.659-1.147-3.017-2.564-3.017H3.179Z" fill="#FA0"/><path d="M12.154 6.101h7.692v27.15h-7.692V6.101Z" fill="#00A888"/><path d="M10.725.068c-1.28-.151-2.53.603-3.215 1.809-.997 1.809-.401 4.073 1.326 5.129.554.452 1.15.603 1.748.603h10.83c.599 0 1.209-.151 1.764-.603 1.727-1.056 2.309-3.318 1.312-5.129C23.493.068 21.295-.535 19.567.519a3.089 3.089 0 0 0-1.296 1.358h-.027c-.042.151-.078.151-.113.302L16 5.95l-2.129-3.772c-.037-.15-.073-.15-.113-.302h-.028c-.306-.603-.729-1.056-1.284-1.358a3.542 3.542 0 0 0-1.721-.45Zm-.212 1.809c.347 0 .705.151 1.03.302.108 0 .206.151.295.151.063.15.116.15.17.302h.042c.028 0 .059.15.085.15h.057c.02.151.052.151.07.151l1.495 2.715h-3.441c-.082 0-.16 0-.24-.151-.114 0-.23 0-.338-.15-.215 0-.409-.302-.55-.453-.423-.603-.486-1.358-.113-2.112.311-.452.862-.905 1.44-.905Zm10.985 0c.578 0 1.127.453 1.44.905.373.754.295 1.509-.128 2.112-.142.151-.32.453-.537.453-.107.15-.222.15-.337.15-.08.151-.172.151-.255.151h-3.439l1.493-2.715c.018 0 .049 0 .07-.151h.057c.026 0 .057-.15.085-.15h.042c.054-.151.121-.151.185-.302.09 0 .187-.151.295-.151.324-.15.683-.302 1.029-.302Z" fill="#007861"/><path d="M1.897 13.643h28.206v4.524H1.895v-4.524Z" fill="#F39C12"/><path d="M12.154 13.643h7.692v4.524h-7.692v-4.524Zm0 18.098h7.692v1.508h-7.692V31.74Z" fill="#007861"/><path d="M1.899 13.646h10.256v1.508H1.899v-1.508Zm17.95 0h10.256v1.508H19.849v-1.508Z" fill="#E67E22"/></svg>
