<svg viewBox="0 0 32 32" fill="currentColor" xmlns="http://www.w3.org/2000/svg" width="32" height="32"><g stroke-width="0"/><g stroke-linecap="round" stroke-linejoin="round"/><path d="m26.347 14.36-.12-.467h-9.92v4.213h5.933a5.933 5.933 0 0 1-5.813 4.453 6.947 6.947 0 0 1-4.667-1.853A6.667 6.667 0 0 1 9.773 16a6.853 6.853 0 0 1 1.947-4.707 6.667 6.667 0 0 1 4.64-1.827 6.067 6.067 0 0 1 4 1.547L23.293 8a10.507 10.507 0 0 0-7.027-2.667 10.853 10.853 0 0 0-7.693 3.133 10.867 10.867 0 0 0-.12 14.947 11.16 11.16 0 0 0 8 3.253 9.933 9.933 0 0 0 7.213-3.027 10.667 10.667 0 0 0 2.773-7.387 13.173 13.173 0 0 0-.093-1.893Z"/></svg>
