<svg width="31" height="18" viewBox="0 0 31 18" fill="none" xmlns="http://www.w3.org/2000/svg">
	<rect width="31" height="18" rx="1" fill="#FFAA00" />
	<path d="M10.0625 8.13672V9.05664H5.44531V8.13672H10.0625ZM5.62109 4.46875V13H4.49023V4.46875H5.62109ZM11.0469 4.46875V13H9.92188V4.46875H11.0469ZM19.625 8.46484V9.00391C19.625 9.64453 19.5449 10.2188 19.3848 10.7266C19.2246 11.2344 18.9941 11.666 18.6934 12.0215C18.3926 12.377 18.0312 12.6484 17.6094 12.8359C17.1914 13.0234 16.7227 13.1172 16.2031 13.1172C15.6992 13.1172 15.2363 13.0234 14.8145 12.8359C14.3965 12.6484 14.0332 12.377 13.7246 12.0215C13.4199 11.666 13.1836 11.2344 13.0156 10.7266C12.8477 10.2188 12.7637 9.64453 12.7637 9.00391V8.46484C12.7637 7.82422 12.8457 7.25195 13.0098 6.74805C13.1777 6.24023 13.4141 5.80859 13.7188 5.45312C14.0234 5.09375 14.3848 4.82031 14.8027 4.63281C15.2246 4.44531 15.6875 4.35156 16.1914 4.35156C16.7109 4.35156 17.1797 4.44531 17.5977 4.63281C18.0195 4.82031 18.3809 5.09375 18.6816 5.45312C18.9863 5.80859 19.2188 6.24023 19.3789 6.74805C19.543 7.25195 19.625 7.82422 19.625 8.46484ZM18.5059 9.00391V8.45312C18.5059 7.94531 18.4531 7.49609 18.3477 7.10547C18.2461 6.71484 18.0957 6.38672 17.8965 6.12109C17.6973 5.85547 17.4531 5.6543 17.1641 5.51758C16.8789 5.38086 16.5547 5.3125 16.1914 5.3125C15.8398 5.3125 15.5215 5.38086 15.2363 5.51758C14.9551 5.6543 14.7129 5.85547 14.5098 6.12109C14.3105 6.38672 14.1562 6.71484 14.0469 7.10547C13.9375 7.49609 13.8828 7.94531 13.8828 8.45312V9.00391C13.8828 9.51562 13.9375 9.96875 14.0469 10.3633C14.1562 10.7539 14.3125 11.084 14.5156 11.3535C14.7227 11.6191 14.9668 11.8203 15.248 11.957C15.5332 12.0938 15.8516 12.1621 16.2031 12.1621C16.5703 12.1621 16.8965 12.0938 17.1816 11.957C17.4668 11.8203 17.707 11.6191 17.9023 11.3535C18.1016 11.084 18.252 10.7539 18.3535 10.3633C18.4551 9.96875 18.5059 9.51562 18.5059 9.00391ZM24.3066 4.46875V13H23.1934V4.46875H24.3066ZM27.0488 4.46875V5.39453H20.457V4.46875H27.0488Z" fill="white" />
</svg>
