<svg width="32" height="32" viewBox="0 0 0.96 0.96" xmlns="http://www.w3.org/2000/svg" fill="currentColor"><path fill-rule="evenodd" d="M.139.537.253.423a.04.04 0 0 1 .06.053L.309.48.195.594A.121.121 0 0 0 .36.769L.365.764.48.651a.04.04 0 0 1 .06.053L.537.707.423.821a.201.201 0 0 1-.29-.278L.139.537ZM.537.139a.201.201 0 1 1 .284.284L.707.537A.04.04 0 1 1 .651.48L.765.366A.121.121 0 0 0 .594.195L.48.309A.04.04 0 1 1 .423.252L.537.138Zm0 .227a.04.04 0 0 1 .057.057L.423.594A.04.04 0 1 1 .366.537L.537.366Z"/></svg>
