<svg xmlns="http://www.w3.org/2000/svg" xmlns:xlink="http://www.w3.org/1999/xlink" version="1.1" width="400" height="200" viewBox="0 0 400 200" xml:space="preserve">
<desc>Created with Fabric.js 5.2.4</desc>
<defs>
</defs>
<rect x="0" y="0" width="100%" height="100%" fill="transparent"></rect>
<g transform="matrix(1 0 0 1 200 100)" id="896fa488-ba7d-450a-ac77-bb66646345a5"  >
<rect style="stroke: none; stroke-width: 1; stroke-dasharray: none; stroke-linecap: butt; stroke-dashoffset: 0; stroke-linejoin: miter; stroke-miterlimit: 4; fill: rgb(255,255,255); fill-rule: nonzero; opacity: 1; visibility: hidden;" vector-effect="non-scaling-stroke"  x="-200" y="-100" rx="0" ry="0" width="400" height="200" />
</g>
<g transform="matrix(4.32 0 0 2.57 200 123.39)"  >
<path style="stroke: rgb(155,89,182); stroke-width: 1; stroke-dasharray: none; stroke-linecap: butt; stroke-dashoffset: 0; stroke-linejoin: miter; stroke-miterlimit: 4; fill: rgb(231,76,60); fill-rule: nonzero; opacity: 1;" vector-effect="non-scaling-stroke"  transform=" translate(-24, -40.94)" d="M 47.9943556 35.9463529 L 47.9943556 35.9435294 C 47.971778 35.4437647 47.8673567 35.0625882 47.658514 34.7463529 L 47.6359364 34.7152941 L 47.6105366 34.6842353 C 47.3988717 34.4527059 47.1956734 34.3651765 46.9755419 34.2691765 C 46.3179696 34.0150588 45.3612442 33.8795294 44.2097872 33.8767059 C 43.382883 33.8767059 42.4713128 33.9557647 41.5540982 34.1562353 L 41.551276 34.0941176 L 40.6284171 34.4018824 L 40.6114839 34.4103529 L 40.0893771 34.5797647 L 40.0893771 34.6023529 C 39.47696 34.8564706 38.9209869 35.1727059 38.4045245 35.5482353 C 38.0827939 35.7882353 37.8175072 36.1072941 37.8033962 36.5957647 C 37.7949296 36.8611765 37.9303952 37.1661176 38.1533489 37.3468235 C 38.3763025 37.5275294 38.6359448 37.5896471 38.8645429 37.5896471 C 38.9181647 37.5896471 38.9689643 37.5868235 39.0141194 37.5783529 L 39.0592746 37.5755294 L 39.093141 37.5698824 C 39.5446928 37.4738824 40.2022651 37.4089412 40.9727253 37.3016471 C 41.6331198 37.2282353 42.3330251 37.1745882 42.9397978 37.1745882 C 43.368772 37.1717647 43.7554132 37.2028235 44.0206999 37.2592941 C 44.1533432 37.2875294 44.2521202 37.3214118 44.3057419 37.3496471 C 44.3254973 37.3552941 44.3396083 37.3637647 44.3480749 37.3694118 C 44.3593637 37.4061176 44.3762969 37.5021176 44.3734747 37.6348235 C 44.3791191 38.1430588 44.164632 39.0861176 43.8683012 40.0065882 C 43.5804369 40.9270588 43.2304843 41.8503529 42.999064 42.4630588 C 42.94262 42.6042353 42.9059314 42.7595294 42.9059314 42.9289412 C 42.900287 43.1745882 43.0018862 43.4738824 43.2163733 43.6715294 C 43.425216 43.8691765 43.696147 43.9482353 43.9219229 43.9482353 L 43.9332117 43.9482353 C 44.2718756 43.9454118 44.5597398 43.8098824 44.8080933 43.6150588 C 47.1505182 41.5087059 47.9661336 38.1430588 48 36.2484706 L 47.9943556 35.9463529 Z M 41.0489247 38.8658824 C 40.8090378 38.8630588 40.5635065 38.9195294 40.3349084 39.0268235 C 40.0780883 39.1284706 39.8156239 39.2470588 39.5672704 39.3515294 L 39.2032068 39.504 L 38.7290774 39.6931765 L 38.7290774 39.6988235 C 33.5785648 41.7882353 28.16841 43.0136471 23.1618295 43.1209412 C 22.9783866 43.1265882 22.7921215 43.1265882 22.614323 43.1265882 C 14.7403887 43.1322353 8.31706456 39.4785882 1.83729642 35.8785882 C 1.61152053 35.76 1.37727804 35.6978824 1.15150215 35.6978824 C 0.860815683 35.6978824 0.561662624 35.808 0.344353327 36.0112941 C 0.12704403 36.2174118 -0.00277710907 36.5138824 0.0000450895989 36.816 C -0.00277710907 37.2084706 0.208887791 37.5698824 0.505218651 37.8042353 C 6.58705678 43.0870588 13.25309 47.9943529 22.2192152 48 C 22.3941915 48 22.57199 47.9943529 22.7497885 47.9915294 C 28.453452 47.8644706 34.902176 45.936 39.9087564 42.7905882 L 39.9398006 42.7708235 C 40.5945507 42.3783529 41.2493008 41.9322353 41.8673623 41.4381176 C 42.2511813 41.1529412 42.516468 40.7068235 42.516468 40.2437647 C 42.4995348 39.4221176 41.8024517 38.8658824 41.0489247 38.8658824 Z" stroke-linecap="round" />
</g>
<g transform="matrix(2.48 0 0 3.36 200 74.71)" style="filter: url(#SVGID_1030);" id="f184ac65-f7f1-436e-a620-aa5020447f68"  >
<filter id="SVGID_1030" y="-29%" height="158%" x="-21%" width="142%" >
	<feGaussianBlur in="SourceAlpha" stdDeviation="1"></feGaussianBlur>
	<feOffset dx="0" dy="0" result="oBlur" ></feOffset>
	<feFlood flood-color="rgb(0,0,0)" flood-opacity="1"/>
	<feComposite in2="oBlur" operator="in" />
	<feMerge>
		<feMergeNode></feMergeNode>
		<feMergeNode in="SourceGraphic"></feMergeNode>
	</feMerge>
</filter>
		<text xml:space="preserve" font-family="Raleway" font-size="20" font-style="normal" font-weight="900" style="stroke: none; stroke-width: 1; stroke-dasharray: none; stroke-linecap: butt; stroke-dashoffset: 0; stroke-linejoin: miter; stroke-miterlimit: 4; fill: rgb(155,89,182); fill-rule: nonzero; opacity: 1; white-space: pre;" ><tspan x="-75.08" y="6.28" >V</tspan><tspan x="-60" y="6.28" >n</tspan><tspan x="-45.18" y="6.28" >D</tspan><tspan x="-28.36" y="6.28" >o</tspan><tspan x="-13.58" y="6.28" >c</tspan><tspan x="0.46" y="6.28" >u</tspan><tspan x="15.72" y="6.28" >m</tspan><tspan x="37.02" y="6.28" >e</tspan><tspan x="51.7" y="6.28" >n</tspan><tspan x="66.62" y="6.28" >t</tspan></text>
</g>
<g transform="matrix(0 0 0 0 806.77 327.75)"  >
<g style=""   >
</g>
</g>
<g transform="matrix(0 0 0 0 806.77 327.75)"  >
<g style=""   >
</g>
</g>
<g transform="matrix(0 0 0 0 806.77 312.15)"  >
<g style=""   >
</g>
</g>
<g transform="matrix(0 0 0 0 806.77 312.15)"  >
<g style=""   >
</g>
</g>
</svg>