<svg xmlns="http://www.w3.org/2000/svg" viewBox="0 0 4.74 0.8" xml:space="preserve" width="94.814" height="16"><path fill="#005DB2" d="M-3.057-.17h.093v.253a.438.438 0 0 1 .166-.027.513.513 0 0 1 .197.025.17.17 0 0 1 .098.079.27.27 0 0 1 .021.094.596.596 0 0 1-.004.142.191.191 0 0 1-.035.091.225.225 0 0 1-.128.067.75.75 0 0 1-.199.01.418.418 0 0 1-.118-.025v.023h-.093v-.73zm.189.32a.128.128 0 0 0-.055.015.073.073 0 0 0-.031.043c-.012.041-.01.087-.01.13 0 .021.004.045.008.067a.071.071 0 0 0 .033.045.143.143 0 0 0 .065.017.865.865 0 0 0 .16 0 .193.193 0 0 0 .067-.013.071.071 0 0 0 .037-.039c.008-.019.01-.041.012-.061a.511.511 0 0 0-.002-.119c-.004-.02-.008-.042-.022-.058C-2.621.16-2.643.154-2.664.15a.827.827 0 0 0-.201-.002zm-.64-.09a.715.715 0 0 1 .205.006.251.251 0 0 1 .126.059.17.17 0 0 1 .039.071.462.462 0 0 1 .012.134.387.387 0 0 1-.021.126.156.156 0 0 1-.089.081.493.493 0 0 1-.185.029.525.525 0 0 1-.191-.029.16.16 0 0 1-.093-.082.42.42 0 0 1-.021-.148.355.355 0 0 1 .023-.142.146.146 0 0 1 .071-.071.343.343 0 0 1 .124-.033zm-.012.093c-.027.004-.057.006-.077.025-.017.017-.021.043-.025.067a.519.519 0 0 0 0 .13c.004.021.008.047.021.065a.098.098 0 0 0 .055.027.653.653 0 0 0 .108.008c.047 0 .094 0 .14-.012a.077.077 0 0 0 .059-.048c.012-.039.013-.083.012-.124-.002-.031-.004-.065-.015-.094A.079.079 0 0 0-3.31.152a.875.875 0 0 0-.211-.004zM-4.644.068c.035-.008.073-.008.11-.008a.829.829 0 0 1 .156.012.148.148 0 0 1 .093.059.142.142 0 0 1 .055-.047.361.361 0 0 1 .13-.021 1.021 1.021 0 0 1 .136.004.217.217 0 0 1 .114.041.144.144 0 0 1 .049.091c.006.033.004.067.006.1v.264h-.093V.256a.093.093 0 0 0-.043-.079.256.256 0 0 0-.144-.031.254.254 0 0 0-.138.029.093.093 0 0 0-.043.079V.56h-.091V.258A.096.096 0 0 0-4.41.165a.286.286 0 0 0-.122-.019.272.272 0 0 0-.118.019.116.116 0 0 0-.057.053.126.126 0 0 0-.008.047v.294h-.091V.083h.093v.023c.021-.017.043-.035.071-.039zm2.23.493V.057h.093V.56h-.093zm-2.137.134h.023l-.023.025h-.017l.019-.025zm.551 0h.023L-4 .718a.106.106 0 0 1-.019.002L-4 .695zm2.901 0h.023l.017.025h-.017l-.025-.025zm-2.384.013.025-.002-.025.023H-3.5l.017-.023zm-1.145.027.021-.023h.023l.021.023h-.021l-.012-.013-.012.013h-.019zm.549 0 .021-.023h.021l.023.023h-.021l-.012-.013-.012.013h-.021zm2.334 0 .021-.023h.023a.237.237 0 0 1 .021.023h-.019a.045.045 0 0 1-.013-.013l-.012.013h-.021zm.61 0 .021-.023h.021l.021.023h-.021a2.121 2.121 0 0 1-.011-.013l-.013.013h-.019zm.616-.023c.013 0 .017.015.031.013.012 0 .015-.013.029-.013-.004.008-.004.017-.012.021a.039.039 0 0 1-.037 0C-.515.73-.517.72-.519.712zm-1.623.019h.015v.018l-.013.015a.098.098 0 0 1 .008.081.051.051 0 0 1-.039.033c-.027.006-.065.002-.081-.025A.114.114 0 0 1-2.26.79a.051.051 0 0 1 .031-.039.098.098 0 0 1 .085.01l.002-.027zm-.069.039c-.015.008-.019.027-.017.043 0 .013.002.033.017.041s.041.004.049-.013a.077.077 0 0 0 0-.057C-2.17.767-2.193.765-2.209.771zM-4.808.745h.029V.81l.006-.004c.013-.021.031-.041.047-.061h.037l-.057.065.053.069h-.037a1.977 1.977 0 0 1-.047-.067c-.008.021-.002.043-.004.067h-.029V.745zm.191.004c.023-.004.045-.002.069-.002V.77c-.019 0-.039-.002-.059.002-.012.004-.015.017-.017.029h.077v.023h-.077c.002.01.006.023.017.027.019.006.039.002.059.004v.023c-.025 0-.053.004-.079-.006C-4.65.86-4.658.833-4.656.809c0-.025.013-.053.039-.061zm.118-.002h.118V.77h-.045v.11h-.029V.77h-.043V.747zm.225 0h.037l.055.098V.747h.027v.134h-.035a2.479 2.479 0 0 1-.055-.098v.098h-.027V.747zm.199.002a.104.104 0 0 1 .063.004.053.053 0 0 1 .029.041c.002.021.002.045-.01.063-.01.015-.027.021-.045.023-.021.002-.047-.002-.063-.017-.015-.017-.017-.045-.013-.067.002-.021.017-.041.037-.045zm.012.021c-.015.006-.019.023-.019.039s.002.035.017.045a.039.039 0 0 0 .039-.002c.01-.008.013-.021.013-.035 0-.012 0-.027-.008-.037-.01-.013-.029-.013-.043-.01zm.12-.023h.029v.134h-.029V.747zm.146.039a.049.049 0 0 1 .043-.039c.025-.004.053 0 .079-.002v.023h-.059c-.01 0-.019.002-.025.01-.01.012-.008.029-.008.043.002.01.004.023.015.027.015.006.031.004.047.004V.821h-.039V.8h.067v.081h-.067c-.017 0-.035-.006-.045-.021a.089.089 0 0 1-.008-.071zm.166-.039h.029v.134h-.029V.747zm.122 0h.033l.057.134h-.033L-3.465.85h-.053l-.012.031h-.035l.057-.134zm.015.031-.019.047h.039a.482.482 0 0 0-.019-.047zm.168-.031h.118V.77h-.045v.11h-.029V.77h-.043V.747zm.154.132V.745h.081c.013 0 .029.006.037.017.012.019.004.049-.019.057.008.004.015.008.017.017.006.013.004.027.008.041l-.031-.002C-3.083.86-3.081.84-3.094.83c-.014-.007-.032-.003-.05-.005v.051h-.029zm.029-.11v.035c.015 0 .033.002.049-.002.015-.002.015-.031 0-.033h-.049zm.136-.021h.029v.134h-.029V.748zm.434 0h.029v.134h-.03V.748zm.035.065a1.481 1.481 0 0 0 .051-.065h.037l-.057.065.053.069h-.039l-.049-.069zm.126-.065h.029v.055h.053V.748h.029v.134h-.029V.827a6.382 6.382 0 0 0-.053 0v.055h-.029V.748zm.324 0h.029v.134h-.029V.748zm.15 0c.031.002.065-.004.094.006.025.01.031.041.031.065s-.008.053-.033.059c-.029.006-.061.002-.093.004V.748zm.029.023v.085c.015 0 .031.002.045-.002.015-.006.019-.023.019-.037 0-.015-.002-.035-.015-.043-.015-.005-.033-.001-.049-.003zm.124.11.055-.134h.033l.055.134h-.033L-1.686.85h-.051l-.013.031h-.033zm.053-.055h.039l-.019-.047-.019.047zm.114-.079h.035l.031.051.033-.051h.033l-.051.075c-.004.019 0 .039-.002.059h-.029V.828l-.006-.017-.043-.065zm.227 0h.118V.77h-.045v.11h-.029V.77h-.043V.747zm.154-.002h.029v.134h-.029V.746zm.11.004c.023-.006.047-.002.071-.004v.024c-.019 0-.039-.002-.059.002-.013.004-.015.017-.017.029h.077v.023h-.077c.002.01.006.021.015.027.019.006.041.002.061.004v.023c-.025 0-.053.004-.077-.006S-1.164.834-1.164.81c-.002-.025.011-.055.037-.063zm.134-.002h.041l.033.102.035-.102h.043v.134h-.027V.783l-.037.098h-.029l-.033-.1v.1h-.027V.747zm.274 0h.037l.053.098V.747h.027v.134h-.035L-.692.783v.098h-.027V.747zm.154.132.057-.134h.033l.057.134h-.033A4.136 4.136 0 0 0-.464.848h-.051l-.012.031H-.56zm.073-.102-.019.047h.039A.482.482 0 0 0-.491.777zm.11-.029h.037l.053.098V.748h.027v.134C-.277.882-.288.884-.3.88L-.355.784v.098h-.027V.748zm.162.043c.004-.019.018-.039.038-.043.027-.006.055-.002.085-.002v.023H-.16C-.175.771-.183.786-.185.8c0 .015-.002.035.012.047.015.01.033.006.051.006V.822h-.037a1.319 1.319 0 0 1 0-.023h.067V.88h-.065C-.172.88-.19.876-.2.865-.218.845-.218.818-.214.792zm-2.52.038a.033.017 0 0 1-.033.017.033.017 0 0 1-.033-.017.033.017 0 0 1 .069 0zM-3 .892h.019v.019H-3a.835.835 0 0 1 0-.019zm1.276 0h.021v.019h-.021V.892z"/><path fill="#FF2E17" d="M-2.119-.156c.071-.017.144-.013.217-.013l-.083.081c-.041.002-.091-.004-.124.027-.029.031-.023.079-.025.118h.215a27.881 27.881 0 0 1-.087.089h-.13l.002.414h-.093V.146h-.091V.057h.091l.004-.094a.128.128 0 0 1 .015-.055.144.144 0 0 1 .089-.063zm-.294.057h.093v.093h-.093v-.093zm.653.158a.695.695 0 0 1 .221.01.221.221 0 0 1 .124.067.193.193 0 0 1 .035.096.517.517 0 0 1 0 .156.183.183 0 0 1-.049.112.288.288 0 0 1-.168.063.652.652 0 0 1-.223-.012.229.229 0 0 1-.12-.067c-.021-.025-.027-.059-.033-.093a.59.59 0 0 1-.002-.156c.006-.039.015-.083.047-.112A.286.286 0 0 1-1.76.058zm-.012.093c-.025.003-.053.005-.074.025-.019.017-.023.043-.027.067a.515.515 0 0 0 0 .134c.004.023.008.049.025.065.019.019.047.023.075.027a1.1 1.1 0 0 0 .181.002c.025-.004.053-.006.077-.021.017-.012.025-.033.029-.055A.478.478 0 0 0-1.48.279a.227.227 0 0 0-.015-.08c-.01-.022-.031-.033-.053-.039a.679.679 0 0 0-.089-.01.889.889 0 0 0-.134.004zM-.589.087A.497.497 0 0 1-.403.053c.067 0 .134.004.197.029.039.015.079.045.093.089a.431.431 0 0 1 .018.174h-.499c.004.031.004.069.025.094.023.025.061.027.093.031A.999.999 0 0 0-.304.469.144.144 0 0 0-.247.456c.01-.004.018-.012.025-.017h.11A.157.157 0 0 1-.191.53a.624.624 0 0 1-.363.019C-.599.535-.647.512-.67.468A.3.3 0 0 1-.697.335.407.407 0 0 1-.676.168.166.166 0 0 1-.589.083zm.027.087c-.025.021-.027.055-.033.087H-.2C-.203.235-.205.207-.221.185S-.262.156-.286.154A.869.869 0 0 0-.462.15c-.033.004-.071.004-.1.023zm-.652-.068c.035-.033.085-.039.13-.045a.891.891 0 0 1 .177.004c.049.006.098.027.124.071.025.039.025.087.027.132V.56h-.093V.264A.098.098 0 0 0-.872.191C-.903.158-.953.148-.996.146c-.057-.002-.116-.004-.167.025a.096.096 0 0 0-.051.083V.56h-.093V.085h.091v.023z"/><path fill="#005DB2" d="M1.764.031h.092v.253a.438.438 0 0 1 .166-.028.513.513 0 0 1 .197.025.17.17 0 0 1 .098.079.27.27 0 0 1 .021.094.596.596 0 0 1-.004.142.191.191 0 0 1-.035.091.225.225 0 0 1-.128.067.75.75 0 0 1-.199.01.418.418 0 0 1-.118-.025v.023h-.092V.031zm.189.32a.128.128 0 0 0-.055.015.073.073 0 0 0-.031.043c-.012.041-.01.087-.01.13 0 .021.004.045.008.067a.071.071 0 0 0 .033.045.143.143 0 0 0 .065.017.865.865 0 0 0 .16 0A.193.193 0 0 0 2.19.655a.071.071 0 0 0 .037-.039c.008-.019.01-.041.012-.061a.511.511 0 0 0-.002-.118C2.233.416 2.229.395 2.216.379 2.2.361 2.178.356 2.156.352A.827.827 0 0 0 1.955.35zM1.311.258a.715.715 0 0 1 .205.006.251.251 0 0 1 .126.059.17.17 0 0 1 .039.071.462.462 0 0 1 .012.134.387.387 0 0 1-.021.126.156.156 0 0 1-.089.081.493.493 0 0 1-.185.029.525.525 0 0 1-.191-.029.16.16 0 0 1-.093-.083.42.42 0 0 1-.021-.148.355.355 0 0 1 .023-.142.146.146 0 0 1 .071-.071.343.343 0 0 1 .124-.033zm-.012.093c-.027.004-.057.006-.077.025-.017.017-.021.043-.025.067a.519.519 0 0 0 0 .13c.004.022.008.047.021.065a.098.098 0 0 0 .055.027.653.653 0 0 0 .108.008c.047 0 .094 0 .14-.012a.077.077 0 0 0 .057-.049.385.385 0 0 0 .011-.124.235.235 0 0 0-.013-.094.079.079 0 0 0-.067-.043.875.875 0 0 0-.211-.004zM.175.266C.211.258.249.258.286.258A.829.829 0 0 1 .442.27a.148.148 0 0 1 .093.059A.142.142 0 0 1 .59.282.361.361 0 0 1 .72.261a1.021 1.021 0 0 1 .136.004.217.217 0 0 1 .114.041.144.144 0 0 1 .049.091c.005.033.004.067.005.1v.264H.935V.456A.093.093 0 0 0 .892.377.256.256 0 0 0 .748.346.254.254 0 0 0 .61.375a.093.093 0 0 0-.043.079V.76H.474v-.3A.096.096 0 0 0 .411.367.286.286 0 0 0 .288.348.272.272 0 0 0 .17.367.116.116 0 0 0 .113.42a.126.126 0 0 0-.008.047v.294H.013V.284h.093v.023C.128.29.15.272.177.268zm2.232.495V.258H2.5v.503h-.093z"/><path fill="#FF2E17" d="M2.702.045c.071-.017.144-.013.217-.013l-.083.08c-.041.002-.091-.004-.124.028-.029.031-.023.079-.025.118h.215a27.881 27.881 0 0 1-.087.089h-.13l.002.414h-.093V.345h-.091V.256h.091l.004-.094a.128.128 0 0 1 .016-.055.144.144 0 0 1 .089-.063zm-.294.057h.093v.093h-.093V.102zm.652.156a.695.695 0 0 1 .221.01.221.221 0 0 1 .124.067.193.193 0 0 1 .035.096.517.517 0 0 1 0 .156.183.183 0 0 1-.049.112.288.288 0 0 1-.168.063A.652.652 0 0 1 3 .75a.229.229 0 0 1-.12-.067.187.187 0 0 1-.034-.092.59.59 0 0 1-.002-.156c.006-.039.015-.083.047-.112a.286.286 0 0 1 .168-.065zm-.012.093c-.025.004-.053.006-.075.025-.019.017-.023.043-.027.067a.515.515 0 0 0 0 .134c.004.023.008.049.025.065.019.019.047.023.075.027a1.1 1.1 0 0 0 .181.002c.025-.004.053-.006.077-.021.017-.012.025-.033.029-.055A.478.478 0 0 0 3.34.478a.227.227 0 0 0-.015-.081c-.01-.021-.031-.033-.053-.039a.673.673 0 0 0-.089-.01.889.889 0 0 0-.134.004zM4.233.286a.45.45 0 0 1 .184-.031c.067 0 .134.004.197.029.039.015.079.045.093.089a.431.431 0 0 1 .017.173h-.499c.004.031.004.069.025.094.023.025.061.027.093.031A.999.999 0 0 0 4.514.67a.144.144 0 0 0 .057-.013c.01-.004.017-.012.025-.017h.11a.157.157 0 0 1-.079.091.624.624 0 0 1-.363.019C4.219.736 4.171.712 4.147.669A.3.3 0 0 1 4.12.537a.407.407 0 0 1 .021-.168.166.166 0 0 1 .087-.085zm.027.087c-.026.021-.028.055-.034.087h.395C4.618.435 4.616.407 4.6.385S4.559.356 4.535.354A.869.869 0 0 0 4.36.35c-.033.004-.071.004-.1.023zM3.605.308c.035-.033.085-.039.13-.045a.891.891 0 0 1 .177.004c.049.006.098.027.124.071.025.039.025.087.027.132v.292H3.97V.466a.098.098 0 0 0-.023-.073c-.03-.034-.079-.044-.123-.046a.312.312 0 0 0-.168.025.096.096 0 0 0-.051.083v.306h-.093V.284h.091v.023z"/></svg>
