<svg xmlns="http://www.w3.org/2000/svg" version="1.0" width="48" height="48" viewBox="6.674 1.359 76.649 72.291"><path d="M17.737 1.395c-1.133.128-2.573.495-3.563.907-3.87 1.643-6.652 5.13-7.35 9.225-.143.833-.15 1.26-.15 11.655v10.793h9.375l.015-10.598.022-10.59.217-.465c.262-.57.78-1.08 1.38-1.357.367-.173.525-.203 1.14-.203.63 0 .765.022 1.14.21a2.844 2.844 0 0 1 1.552 1.987c.06.285.083 3.36.083 10.703v10.313h9.375l.015-10.598.022-10.59.24-.495a2.844 2.844 0 0 1 1.357-1.328c.367-.173.525-.203 1.14-.203.585 0 .78.03 1.08.173.503.232.953.615 1.23 1.042.488.758.465.195.465 11.625v10.374h9.383l-.03-11.01c-.022-10.867-.022-11.01-.18-11.715-.818-3.683-2.925-6.585-6.067-8.348-3.923-2.19-8.82-2.04-12.57.39-.39.247-.735.458-.758.458-.03 0-.292-.165-.593-.367-1.252-.833-2.888-1.5-4.447-1.808-.81-.158-2.79-.255-3.525-.18zm47.55.045c-4.17.42-8.092 2.49-10.822 5.723-3.375 4.005-4.62 9.473-3.308 14.565a16.186 16.186 0 0 0 8.581 10.522c2.393 1.177 4.537 1.672 7.275 1.672 1.657 0 2.558-.105 4.02-.473 6.435-1.597 11.317-7.065 12.18-13.635.128-.983.15-3.255.038-4.117-.645-4.845-3.173-8.933-7.178-11.617-.968-.652-2.768-1.53-3.885-1.897a17.157 17.157 0 0 0-6.9-.742zm3.48 9.502c1.335.39 2.333.99 3.277 1.972.862.892 1.388 1.845 1.725 3.098.165.63.225 2.01.112 2.708a7.035 7.035 0 0 1-5.235 5.67c-.915.232-2.482.225-3.36-.007-.667-.18-1.65-.622-2.198-.99-.51-.352-1.403-1.23-1.778-1.755-1.163-1.635-1.552-3.765-1.05-5.738.068-.27.285-.825.48-1.237.945-1.98 2.737-3.368 4.95-3.833.735-.15 2.362-.09 3.075.112zM17.625 41.078c-1.665.247-2.917.615-4.072 1.185A12.245 12.245 0 0 0 7.087 50.1c-.413 1.552-.413 1.507-.413 12.982V73.65h9.375V63.345c0-6.652.03-10.44.075-10.703a2.68 2.68 0 0 1 1.485-1.958c.465-.232.555-.247 1.252-.247.885 0 1.237.128 1.808.652.413.383.637.712.802 1.215.12.338.128 1.275.128 10.822v10.449h9.375V63.36c0-6.938.022-10.357.083-10.672a2.802 2.802 0 0 1 1.77-2.138c.615-.232 1.545-.188 2.13.098.525.255 1.065.795 1.328 1.328l.203.413.022 10.59.015 10.598H45.9v-10.6c0-8.647-.022-10.732-.105-11.377a12.23 12.23 0 0 0-8.258-9.967c-1.38-.458-2.085-.563-3.863-.563-1.403 0-1.718.022-2.4.165-1.612.352-3.015.93-4.335 1.792l-.63.405-.682-.443c-2.085-1.343-4.26-1.972-6.765-1.95-.578 0-1.133.015-1.237.038zm47.287.068c-1.875.255-3.465.728-5.1 1.522-7.433 3.63-10.942 12.105-8.28 19.995.128.367.458 1.147.735 1.725a16.249 16.249 0 0 0 12.563 9.075c1.005.128 3.157.15 4.095.038 3.532-.427 6.877-2.002 9.405-4.425 2.52-2.415 4.162-5.498 4.815-9.038.158-.892.225-3.6.112-4.59a16.614 16.614 0 0 0-3.743-8.655c-2.655-3.165-6.548-5.22-10.777-5.692-.93-.105-2.917-.083-3.825.045zm3.938 9.473a7.155 7.155 0 0 1 4.89 4.92c.143.517.173.772.165 1.8 0 1.095-.022 1.26-.21 1.875-.998 3.255-4.133 5.363-7.425 4.988-4.673-.532-7.492-5.317-5.662-9.623.87-2.047 2.7-3.532 5.018-4.072.652-.158 2.527-.09 3.225.112z" fill="currentColor"/></svg>
