<svg width="24" height="24" viewBox="0 0 24 24" fill="none" xmlns="http://www.w3.org/2000/svg"><path d="M2 7h20v10H2V7Z" fill="#fff"/><path d="M21.333 0H2.667A2.675 2.675 0 0 0 0 2.667v18.666C0 22.8 1.2 24 2.667 24h18.666C22.8 24 24 22.8 24 21.333V2.667C24 1.2 22.8 0 21.333 0ZM8.667 11.333c0 1.067-.934 2-2 2H5.333V16h-2V8h3.334c1.066 0 2 .933 2 2v1.333ZM15.333 14c0 1.067-.933 2-2 2H10V8h3.333c1.067 0 2 .933 2 2v4Zm5.334-4h-2v1.333h2v2h-2V16h-2V8h4v2ZM12 10h1.333v4H12v-4Zm-6.667 0h1.334v1.333H5.333V10Z" fill="#E2574C"/></svg>
