<svg fill="currentColor" height="32" width="32" xmlns="http://www.w3.org/2000/svg" viewBox="0 0 256 256" xml:space="preserve"><g stroke-width="0"/><g stroke-linecap="round" stroke-linejoin="round"/><path d="M254.357 34.146 221.853 1.642a5.608 5.608 0 0 0-7.928 0l-19.979 19.979-3.345-3.345a5.61 5.61 0 0 0-7.93 0l-74.162 74.163-.005.005-89.461 89.461a5.606 5.606 0 0 0 0 7.928l4.136 4.136-12.173 12.174a5.606 5.606 0 0 0 0 7.928l.829.829L.302 248.577a5.606 5.606 0 0 0 7.12 7.12l33.675-11.532.829.829a5.607 5.607 0 0 0 7.929 0l12.174-12.173 4.136 4.136a5.609 5.609 0 0 0 3.965 1.642 5.61 5.61 0 0 0 3.965-1.642l89.465-89.465.003-.003 70.198-70.198 3.596 3.596c3.499 3.5 3.499 9.194 0 12.694l-57.042 57.044a5.606 5.606 0 1 0 7.93 7.928l57.04-57.042c7.872-7.872 7.872-20.68 0-28.552l-7.56-7.561-.001-.001-3.345-3.345 19.979-19.979a5.606 5.606 0 0 0 .001-7.928zM14.619 241.381l6.045-17.651.649.649 10.957 10.957-17.651 6.045zm31.273-8.28L22.9 210.109l8.209-8.209 11.496 11.496 11.496 11.496-8.209 8.209zm24.238-8.037-39.194-39.195 81.538-81.538 7.894 7.894-55.595 55.594a5.608 5.608 0 0 0 7.93 7.929l55.595-55.594 7.976 7.976 15.395 15.396-81.539 81.539zm91.938-91.937-.003.002-2.468 2.468-23.371-23.371 50.039-50.039a5.608 5.608 0 0 0-7.929-7.929l-50.04 50.039-.271-.271-7.623-7.623 66.234-66.234 3.341 3.341.004.005 32.504 32.504.004.003 3.342 3.342-63.763 63.764zm64.383-79.002L201.875 29.55l16.015-16.015 24.576 24.576-16.015 16.015z"/><path d="M62.825 182.096a5.706 5.706 0 0 0-.315-1.048 5.723 5.723 0 0 0-.516-.97 5.697 5.697 0 0 0-.701-.852 5.36 5.36 0 0 0-.852-.695 5.689 5.689 0 0 0-.965-.516 6.046 6.046 0 0 0-1.048-.32 5.54 5.54 0 0 0-2.192 0 5.569 5.569 0 0 0-1.048.32c-.342.14-.667.314-.97.516a5.37 5.37 0 0 0-.852.695 5.36 5.36 0 0 0-.695.852 5.72 5.72 0 0 0-.836 2.018c-.073.359-.112.729-.112 1.093s.038.735.112 1.099c.073.353.179.707.32 1.048.14.337.315.661.516.965a5.37 5.37 0 0 0 .695.852 5.537 5.537 0 0 0 1.822 1.217 5.511 5.511 0 0 0 2.142.426c.364 0 .735-.034 1.099-.106a5.963 5.963 0 0 0 1.048-.32c.337-.14.661-.314.965-.516a5.378 5.378 0 0 0 .852-.701 5.621 5.621 0 0 0 1.217-1.817c.135-.342.246-.695.315-1.048.073-.364.112-.735.112-1.099s-.04-.735-.113-1.093z"/></svg>
