<svg xmlns="http://www.w3.org/2000/svg" version="1.0" width="48" height="59" viewBox="0 0 48 59"><g fill="currentColor"><path d="M11.086.817c-.217.126-.492.32-.606.446-.526.571-.526.674-.537 9.017v7.92h.491c.275 0 .755.08 1.063.171s.594.172.652.172c.045 0 .08-2.114.08-4.686V9.171h25.12l-.023 6.629c0 3.646.011 6.629.034 6.629s.32-.252.651-.572c.343-.308.823-.674 1.075-.811l.457-.263v-9.257c0-8.8-.012-9.292-.217-9.737-.115-.263-.412-.618-.652-.8l-.423-.332L24.87.634C12.023.611 11.474.611 11.086.817zm26.251 3.44c.023.789 0 1.703-.034 2.023l-.057.606H12.229V2.77l12.548.023 12.537.035.023 1.428z"/><path d="M21.029 4.829V5.97h7.428V3.686H21.03v1.143zM2.846 6.93C1.143 7.39.069 8.783.057 10.543c0 .754.057.971.377 1.623.332.674.663 1.017 3.36 3.531 3.475 3.234 3.44 3.212 3.68 3.12.149-.057.183-.286.183-1.303V16.27l-2.48-2.309c-1.371-1.28-2.583-2.446-2.686-2.606-.125-.183-.205-.514-.205-.834a1.5 1.5 0 0 1 1.897-1.44c.297.08.88.549 1.943 1.543l1.531 1.428V8.977l-.823-.731C5.794 7.33 5.566 7.183 4.8 6.954c-.72-.217-1.234-.217-1.954-.023zm13.04 11.67v2.914l.8.012c.445.011 1.44.011 2.228.011s1.76 0 2.172-.011l.743-.012v-5.828h-5.943V18.6zm4.685.023v1.748h-3.428V18.68c0-.937.023-1.726.057-1.76s.811-.057 1.714-.046h1.657v1.749z"/><path d="M17.829 18.6v.971h2.057V17.63h-2.057v.971zm4.685-2.32v.606h2.172v-1.2h-2.172v.594zM25.6 18.6v2.914h1.257v-5.828H25.6V18.6zm2.057 0v2.914l.663.012a263 263 0 0 0 2.96.034l2.32.011v-5.885h-5.943V18.6zm4.686.023v1.748h-3.429v-3.417l.377-.045c.195-.023.972-.046 1.715-.035l1.337.012v1.737z"/><path d="M29.6 18.6v.971h2.057V17.63H29.6v.971zm-6.971 2.229v2.857h4.228v-.572c0-.651.172-.594-1.771-.617l-1.143-.011-.034-2.263-.023-2.252h-1.257v2.858zM8.834 19.686a3.89 3.89 0 0 0-2.628 2.034c-.275.571-.32.789-.32 1.68 0 .949.034 1.086.377 1.726.24.445.663.948 1.177 1.417l.8.72-.571.32c-1.223.697-1.92 2.068-1.818 3.543.08 1.085.423 1.714 1.475 2.72l.88.845-.663.435c-1.177.765-1.794 2-1.692 3.417.103 1.348.4 1.794 2.503 3.737 2.309 2.126 2.675 2.354 4 2.411.892.046 1.052.023 1.692-.262 1.588-.72 2.503-2.389 2.183-4.046-.172-.937-.538-1.532-1.452-2.423-.457-.446-.834-.834-.834-.857s.194-.137.434-.263c.537-.274 1.189-.96 1.497-1.566.297-.571.503-1.657.412-2.137-.229-1.12-.435-1.497-1.395-2.491l-.96-.995.503-.285c.972-.572 1.703-1.703 1.84-2.88.103-.755-.171-1.795-.651-2.469-.366-.514-3.234-3.246-3.932-3.737-.731-.514-1.965-.777-2.857-.594zm1.429 2.32c.434.251 3.463 3.085 3.634 3.417.389.743.069 1.726-.674 2.068-.88.423-1.234.24-3.292-1.668-1.977-1.84-2.205-2.252-1.725-3.143.388-.72 1.371-1.051 2.057-.674zm-.023 7.428c.446.252 3.497 3.097 3.657 3.417.389.743.034 1.795-.697 2.103-.926.389-1.246.217-3.451-1.863-1.578-1.485-1.875-1.931-1.703-2.582.091-.366.605-.983.914-1.109.354-.149 1.006-.126 1.28.034zm-.126 7.395c.389.148 3.657 3.142 3.817 3.508.606 1.337-.845 2.72-2.125 2-.56-.308-3.292-2.891-3.577-3.371-.698-1.189.582-2.629 1.885-2.137z"/><path d="M41.714 22.326c-1.314.263-2.594 1.325-3.108 2.594-.263.64-.263.709-.297 6.16l-.035 5.509-.651.182c-1.463.435-2.857 1.395-3.623 2.503l-.434.64H18.309l.102.423c.058.24.103.732.103 1.086v.663h14.172v5.943H12.229v-.446c0-.446-.012-.446-.549-.572a7.107 7.107 0 0 1-1.097-.342 4.889 4.889 0 0 0-.594-.24c-.103 0-.035 1.908.068 2.308.069.24.252.583.423.777.629.755-.206.709 12.686.732l11.691.011v-3.714c0-4.034.057-4.56.629-5.543.411-.686 1.325-1.509 2.057-1.84.343-.16.994-.331 1.497-.377.72-.092.926-.16 1.177-.4l.297-.297.057-6.217.058-6.206.308-.4c.846-1.109 2.583-1.006 3.257.194l.263.457v6.812c0 7.325-.011 7.463-.606 8.445-.137.218-.982 1.292-1.874 2.378-1.703 2.08-1.828 2.308-1.497 2.914.069.137 1.44 1.771 3.04 3.623 1.611 1.851 2.937 3.394 2.96 3.417.011.023.32-.206.674-.514s.732-.64.846-.732c.194-.16.034-.366-2.457-3.246l-2.674-3.074 1.062-1.268c1.818-2.183 2.263-2.915 2.583-4.286.206-.857.206-14.354 0-15.097-.548-2.023-2.743-3.372-4.8-2.96zm-24.331.731.468.617.72-.068a8.963 8.963 0 0 1 1.36.011c.583.08.64.114.64.366s.035.274.629.274h.629V22.43h-4.903l.457.628zm10.274 1.486v2.114h1.246l.034-1.52.034-1.508 1.543-.023c.846 0 1.886-.012 2.32-.023l.766-.012V22.43h-5.943v2.114z"/><path d="M30.171 25.571v1.086H33.6V25.4h-2.171v-.914H30.17v1.085zm-11.725.08c.034.149.068.435.068.629 0 .366.023.377.457.377h.458V25.4h-.526c-.492 0-.526.023-.457.251zm2.125.378v.628h2.172V25.4H20.57v.629zm3.2 0v.628H25.6V28.6h1.257v-3.2h-3.086v.629zm-5.508 1.965-.16.549 1.234.034 1.234.034v3.532h-2.194l.069.354c.034.194.068.457.068.572 0 .205.115.217 1.657.217h1.658v-5.829H18.41l-.148.537zm9.394 2.377v2.915l.492.011c.262 0 1.6.023 2.96.023l2.491.023v-5.886h-5.943v2.914zm4.686 0v1.772h-3.429V30.45c0-.937.035-1.737.08-1.771.035-.046.812-.08 1.715-.08h1.634v1.771z"/><path d="M29.6 30.371v.972h2.057V29.4H29.6v.971zm-6.971.229v2.8H24.8v-1.257h-.914V27.8h-1.257v2.8zm-4.8-.446c0 1.132.057 1.189 1.142 1.189h.915V29.4h-2.057v.754zm7.771 1.417V33.4h1.257v-3.657H25.6v1.828zM23.943 43.4c-.526.286-.72.503-.926 1.04-.457 1.189.423 2.446 1.703 2.446.971 0 1.714-.617 1.863-1.543.057-.412.023-.617-.194-1.052-.149-.297-.412-.64-.583-.765-.423-.297-1.406-.366-1.863-.126zm-9.772 9.154c0 .137 1.955 2.32 2.583 2.903 1.177 1.063 3.155 1.817 4.789 1.829.366 0 2.011-.229 3.646-.515 2.845-.502 2.971-.514 3.165-.32.103.115.617.698 1.132 1.292.525.594.983 1.097 1.017 1.108s.423-.297.857-.697l.8-.72-1.463-1.68c-.96-1.097-1.566-1.691-1.76-1.748-.183-.046-1.086.057-2.137.24-1.006.171-2.571.445-3.486.605-1.463.252-1.748.275-2.457.16-1.223-.194-2.148-.697-3.097-1.691l-.811-.834h-1.395c-.754 0-1.383.034-1.383.068z"/></g></svg>
