<svg xmlns="http://www.w3.org/2000/svg" viewBox="0 0 32 32" width="32" height="32"><path fill="#03a9f4" d="M16 2.665a13.333 13.333 0 1 0 0 26.667 13.333 13.333 0 1 0 0-26.667Z"/><path fill="#03a9f4" d="M22.333 14.667a7.667 7.667 0 1 0 0 15.333 7.667 7.667 0 1 0 0-15.333zM9.668 2a7.667 7.667 0 1 0 0 15.333A7.667 7.667 0 1 0 9.668 2z"/><path fill="#fff" d="M16.403 24C12 24 10 21.8 10 20.132c0-.868.599-1.465 1.465-1.465 1.868 0 1.401 2.733 4.933 2.733 1.8 0 2.8-1 2.8-2 0-.603-.268-1.268-1.465-1.603l-3.933-1c-3.133-.797-3.732-2.53-3.732-4.198C10.068 9.2 13.2 8 16.135 8 18.868 8 22 9.465 22 11.465c0 .868-.667 1.401-1.535 1.401-1.599 0-1.335-2.268-4.535-2.268-1.599 0-2.532.733-2.532 1.803 0 1.067 1.267 1.397 2.399 1.665l2.933.667c3.2.732 3.933 2.6 3.933 4.397-.068 2.8-2.068 4.868-6.264 4.868z"/></svg>
