<svg xmlns="http://www.w3.org/2000/svg" viewBox="0 0 32 32" xml:space="preserve" width="32" height="32"><g style="stroke:none;stroke-width:0;stroke-dasharray:none;stroke-linecap:butt;stroke-linejoin:miter;stroke-miterlimit:10;fill:none;fill-rule:nonzero;opacity:1"><path d="M8.159 2.546a.25.25 0 0 1-.185-.418L9.169.818a.25.25 0 0 1 .37.337l-1.195 1.31a.249.249 0 0 1-.185.082zm-5.154-.094a.251.251 0 0 1-.185-.082L1.711 1.155A.25.25 0 1 1 2.08.818l1.109 1.216a.25.25 0 0 1-.185.418zm2.62 8.798a.25.25 0 0 1-.25-.25V9.649a.25.25 0 0 1 .5 0V11a.25.25 0 0 1-.25.25zm5.06-3.353a.254.254 0 0 1-.113-.027l-1.189-.604a.25.25 0 0 1-.11-.336.25.25 0 0 1 .336-.11l1.189.604a.25.25 0 0 1-.114.473zM.628 7.783a.25.25 0 0 1-.111-.474l1.195-.588a.25.25 0 0 1 .221.449l-1.195.588a.249.249 0 0 1-.11.026z" style="stroke:none;stroke-width:1;stroke-dasharray:none;stroke-linecap:butt;stroke-linejoin:miter;stroke-miterlimit:10;fill:#ffc850;fill-rule:nonzero;opacity:1" transform="matrix(2.81 0 0 2.81 1.407 1.407)"/><path d="M5.625.03a.419.419 0 0 0-.378.235L3.885 3.024a.079.079 0 0 1-.059.043L.781 3.51a.419.419 0 0 0-.34.287.418.418 0 0 0 .107.432l2.203 2.147a.079.079 0 0 1 .023.069l-.52 3.032a.419.419 0 0 0 .168.412.419.419 0 0 0 .444.032l2.723-1.432a.08.08 0 0 1 .036-.009c.777-2.451.613-5.345 0-8.451z" style="stroke:none;stroke-width:1;stroke-dasharray:none;stroke-linecap:butt;stroke-linejoin:miter;stroke-miterlimit:10;fill:#ffc850;fill-rule:nonzero;opacity:1" transform="matrix(2.81 0 0 2.81 1.407 1.407)"/><path d="M5.625.03a.419.419 0 0 1 .378.235l1.361 2.759a.079.079 0 0 0 .059.043l3.045.442a.419.419 0 0 1 .34.287.418.418 0 0 1-.107.432L8.498 6.375a.079.079 0 0 0-.023.069l.52 3.032a.419.419 0 0 1-.168.412.419.419 0 0 1-.444.032L5.661 8.489a.079.079 0 0 0-.036-.009c-.916-2.371-.711-5.284 0-8.45z" style="stroke:none;stroke-width:1;stroke-dasharray:none;stroke-linecap:butt;stroke-linejoin:miter;stroke-miterlimit:10;fill:#ffdc64;fill-rule:nonzero;opacity:1" transform="matrix(2.81 0 0 2.81 1.407 1.407)"/></g></svg>
