<svg height="32" width="32" xmlns="http://www.w3.org/2000/svg" viewBox="-7 -7 270 270" xml:space="preserve" fill="currentColor" stroke="#fa0" stroke-width="7"><path stroke-width="10" d="M195.442 112.416a4.635 4.635 0 0 0-3.741-3.155l-41.145-5.979-18.402-37.283a4.633 4.633 0 0 0-8.31 0l-18.401 37.283-41.145 5.979a4.636 4.636 0 0 0-3.741 3.155 4.638 4.638 0 0 0 1.173 4.75l29.774 29.02-7.029 40.98a4.633 4.633 0 0 0 6.723 4.885L128 172.703l36.8 19.348a4.64 4.64 0 0 0 4.882-.352 4.639 4.639 0 0 0 1.843-4.532l-2.639-15.383-2.17-12.648-2.221-12.947 29.773-29.02a4.634 4.634 0 0 0 1.173-4.75z"/><path fill="#fa0" d="M23.241 132.042H4.042a4.042 4.042 0 0 1 0-8.084h19.199a4.042 4.042 0 0 1 0 8.084zm228.717 0h-19.199a4.042 4.042 0 0 1 0-8.084h19.199a4.042 4.042 0 0 1 0 8.084zM40.349 219.694a4.029 4.029 0 0 1-2.858-1.184 4.041 4.041 0 0 1 .001-5.716l13.575-13.575a4.042 4.042 0 1 1 5.715 5.716L43.206 218.51a4.028 4.028 0 0 1-2.857 1.183zM202.075 57.967a4.043 4.043 0 0 1-2.858-6.901l13.576-13.575a4.042 4.042 0 0 1 5.716 0 4.042 4.042 0 0 1 0 5.716l-13.575 13.575a4.028 4.028 0 0 1-2.858 1.185zM128 256a4.042 4.042 0 0 1-4.042-4.042V232.76a4.042 4.042 0 0 1 8.084 0v19.198A4.042 4.042 0 0 1 128 256zm0-228.716a4.042 4.042 0 0 1-4.042-4.042V4.043a4.042 4.042 0 0 1 8.084 0v19.199A4.042 4.042 0 0 1 128 27.284zm87.65 192.41a4.03 4.03 0 0 1-2.858-1.184l-13.576-13.575a4.043 4.043 0 0 1 5.716-5.716l13.575 13.575a4.042 4.042 0 0 1 0 5.716 4.024 4.024 0 0 1-2.857 1.185zM53.925 57.967a4.029 4.029 0 0 1-2.858-1.184L37.491 43.208a4.041 4.041 0 0 1 .001-5.716 4.042 4.042 0 0 1 5.716 0l13.575 13.576a4.042 4.042 0 0 1-2.858 6.899z"/></svg>
