<svg width="32" height="32" viewBox="0 0 0.96 0.96" xmlns="http://www.w3.org/2000/svg" fill="currentColor"><path fill-rule="evenodd" d="M.422.08c.032 0 .062.013.084.035l.339.339a.119.119 0 0 1 0 .168L.622.845a.119.119 0 0 1-.168 0L.115.506A.119.119 0 0 1 .08.422V.199A.119.119 0 0 1 .199.08h.223Zm0 .08H.199A.039.039 0 0 0 .16.199v.223c0 .01.004.02.011.028L.51.789a.04.04 0 0 0 .055 0L.788.566a.039.039 0 0 0 0-.055L.449.172A.039.039 0 0 0 .421.161ZM.32.24a.08.08 0 1 1 0 .16.08.08 0 0 1 0-.16Z"/></svg>
