<svg xmlns="http://www.w3.org/2000/svg" viewBox="0 0 48 38.438" width="48" height="38.438"><path fill-rule="evenodd" d="M37.819 19.041c-1.472 -0.422 -3.234 -0.684 -4.762 -0.506 -1.65 0.197 -3.178 1.031 -4.688 1.678 -2.287 0.966 -4.594 1.875 -6.909 2.775 -1.05 0.413 -2.391 0.722 -3.319 1.359 -2.522 1.716 0.291 6.084 2.981 5.222 1.2 -0.384 2.428 -0.694 3.572 -1.237 0.769 -0.356 2.044 -1.078 2.766 -0.272 0.516 0.572 0.909 1.763 -0.084 2.138 -1.659 0.628 -3.347 1.256 -5.006 1.903 -0.628 0.244 -1.284 0.591 -1.987 0.478 -0.684 -0.112 -1.284 -0.637 -1.875 -0.975 -1.397 -0.788 -2.813 -1.556 -4.209 -2.334 -2.766 -1.547 -5.541 -3.094 -8.297 -4.669 -1.838 -1.05 -5.166 -1.209 -5.438 1.612 -0.084 0.909 0.722 2.681 1.566 3.159l1.631 0.928c3.281 1.847 6.544 3.713 9.825 5.559 2.691 1.509 5.1 4.397 8.494 3.206 2.063 -0.722 4.144 -1.378 6.169 -2.184 1.838 -0.731 3.6 -1.781 5.541 -2.213 2.063 -0.45 4.528 -0.6 6.609 -0.112 0.703 0.159 0.778 -0.534 0.778 -0.534V21.722c-0.178 -0.544 -0.553 -1.116 -0.984 -1.491 -0.637 -0.553 -1.566 -0.956 -2.372 -1.191zm8.306 2.644h-2.747c-0.722 0 -1.322 0.591 -1.322 1.313v10.238c0 0.722 0.591 1.313 1.322 1.313H46.125c0.722 0 1.313 -0.591 1.313 -1.313V22.997c0 -0.722 -0.591 -1.313 -1.313 -1.313zm-2.091 3.019c-0.544 0 -0.984 -0.441 -0.984 -0.984s0.441 -0.984 0.984 -0.984 0.984 0.441 0.984 0.984c0 0.534 -0.441 0.984 -0.984 0.984z" clip-rule="evenodd" fill="currentColor" class="color000 svgShape"/><path fill-rule="evenodd" d="M16.528 27.6c-0.028 -0.084 -0.066 -0.169 -0.084 -0.253 -0.441 -1.434 -0.056 -2.766 1.022 -3.6 -0.694 -0.131 -1.341 -0.375 -1.772 -0.684l0.431 -1.2c0.647 0.431 1.575 0.769 2.588 0.769 1.275 0 2.138 -0.731 2.138 -1.753 0 -0.984 -0.703 -1.594 -2.025 -2.138 -1.828 -0.722 -2.963 -1.537 -2.963 -3.103 0 -1.491 1.059 -2.616 2.709 -2.888v-1.809H19.688v1.744c1.078 0.038 1.809 0.319 2.334 0.628l-0.45 1.181c-0.375 -0.216 -1.116 -0.609 -2.259 -0.609 -1.378 0 -1.903 0.825 -1.903 1.537 0 0.938 0.666 1.397 2.222 2.044 1.847 0.75 2.784 1.688 2.784 3.281 0 0.338 -0.056 0.675 -0.169 0.984 1.912 -0.75 3.863 -1.528 5.784 -2.334 0.206 -0.084 0.422 -0.178 0.628 -0.272 0.019 -0.272 0.038 -0.544 0.038 -0.825 0 -5.325 -4.313 -9.637 -9.637 -9.637s-9.637 4.313 -9.637 9.637c-0.009 4.444 3.009 8.194 7.106 9.3z" clip-rule="evenodd" fill="currentColor" class="color000 svgShape"/></svg>
