<svg xmlns="http://www.w3.org/2000/svg" fill="none" viewBox="0 0 32 32" stroke-width="2" stroke="currentColor" width="32" height="32"><path stroke-linecap="round" stroke-linejoin="round" d="m19.653 12-.461 12m-6.384 0-.461-12m13.291-4.28c.456.069.909.143 1.363.221m-1.363-.22-1.425 18.51A3 3 0 0 1 21.221 29H10.779a3 3 0 0 1-2.992-2.769L6.363 7.72m19.275 0a64.144 64.144 0 0 0-4.637-.529m-16 .749c.453-.079.907-.152 1.363-.22m0 0a64.147 64.147 0 0 1 4.637-.529m10 0V5.97c0-1.573-1.213-2.885-2.787-2.935a69.285 69.285 0 0 0-4.427 0C12.214 3.084 11 4.398 11 5.97v1.221m10 0a64.889 64.889 0 0 0-10 0"/></svg>
