<svg xmlns="http://www.w3.org/2000/svg" width="32" height="32" viewBox="0 0 32 32" fill="currentColor"><path fill-rule="evenodd" d="M10.027 5.528a4.906 4.906 0 0 0 2.792-1.157 4.906 4.906 0 0 1 6.362 0 4.906 4.906 0 0 0 2.792 1.157 4.906 4.906 0 0 1 4.499 4.499 4.898 4.898 0 0 0 1.157 2.792 4.906 4.906 0 0 1 0 6.362 4.906 4.906 0 0 0-1.157 2.792 4.906 4.906 0 0 1-4.499 4.499 4.906 4.906 0 0 0-2.792 1.157 4.906 4.906 0 0 1-6.362 0 4.906 4.906 0 0 0-2.792-1.157 4.906 4.906 0 0 1-4.499-4.499 4.906 4.906 0 0 0-1.157-2.792 4.906 4.906 0 0 1 0-6.362 4.906 4.906 0 0 0 1.157-2.792 4.906 4.906 0 0 1 4.499-4.499zm11.904 8.403a1.6 1.6 0 0 0-2.262-2.262L14.4 16.938l-2.069-2.069a1.6 1.6 0 0 0-2.262 2.262l3.2 3.2a1.6 1.6 0 0 0 2.262 0l6.4-6.4z" clip-rule="evenodd"/></svg>
