<svg xmlns="http://www.w3.org/2000/svg" version="1.1" id="SVGRoot" viewBox="0 0 800 170" width="70" height="19" xml:space="preserve"><style>.st0{fill:#ef0032}</style><g id="g884"><g id="g910" transform="translate(57.113 706.904)"><path id="path912" class="st0" d="M128.5-665.4h-13.3c-5.3 0-9.6 4.3-9.6 9.6v98.3c0 5.3 4.3 9.6 9.6 9.6h13.3c5.3 0 9.6-4.3 9.6-9.6v-98.3c-.1-5.4-4.3-9.6-9.6-9.6"/></g><g id="g914" transform="translate(51.032 706.904)"><path id="path916" class="st0" d="M86.9-665.4c-8.4 0-15.4 5-18.8 12.2l-35.2 74.9c-.8 1.8-2.5 4.6-3.9 4.6s-3.1-2.9-3.9-4.6l-35.5-74.9c-3.4-7.2-10.4-12.2-18.8-12.2h-20.5L6.2-557.2c5.5 10.7 16.9 10.4 22.7 10.4 8 0 17.4-.4 22.4-10.4l55.9-108.3H86.9z"/></g><g id="g918" transform="translate(129.813 709.2)"><path id="path920" class="st0" d="M626.1-685.7c0-5.3-4.3-9.6-9.6-9.6h-13.3c-5.3 0-9.6 4.3-9.6 9.6v97.1c0 14.8 5.3 23.5 14.7 29.7 9.1 6 19.7 8.6 39.3 8.6h10.7c5.3 0 9.5-4.3 9.5-9.6v-10.4h-8c-5.8 0-18-.2-25.2-5.1-9.4-6.2-8.6-17.3-8.6-25.3v-85z"/></g><g id="g922" transform="translate(103.37 694.481)"><path id="path924" class="st0" d="M445.1-555.6c-5.8 0-18-.2-25.2-5.1-9.4-6.2-8.6-17.3-8.6-25.3v-47.2h31.4c5.3 0 9.6-4.3 9.6-9.6V-653h-41v-18c0-5.3-4.3-9.6-9.6-9.6h-13.3c-5.3 0-9.6 4.3-9.6 9.6v18h-67.6v-18c0-5.3-4.3-9.6-9.6-9.6h-13.3c-5.3 0-9.6 4.3-9.6 9.6v18h-20.2v10.4c0 5.3 4.3 9.6 9.6 9.6h10.6v59.1c0 14.8 5.3 23.5 14.7 29.7 9.1 6 19.7 8.6 39.3 8.6h10.7c5.3 0 9.5-4.3 9.5-9.6v-10.4h-8c-5.8 0-18-.2-25.2-5.1-9.4-6.2-8.6-17.3-8.6-25.3v-47.2h67.6v59.1c0 14.8 5.3 23.5 14.7 29.7 9.1 6 19.6 8.6 39.3 8.6h10.6c5.3 0 9.6-4.3 9.6-9.6v-10.4h-7.8z"/></g><g id="g926" transform="translate(74.43 701.739)"><path id="path928" class="st0" d="M247-619.8c0 3.1-.8 6.9-7.2 6.9h-46.1c-11.7 0-21.2 5.3-21.2 12v-12c.3-7.8 0-14.2 6.7-20.2 8.8-8 22.1-7.8 30.7-7.8 9.1 0 19.6.4 27.7 5.3 4.7 3 9.4 8.5 9.4 15.8m28.8 67.4v-10.4h-71.7c-11.9 0-25.5-1.3-29.6-13.9-1.1-3.6-1.9-11.1-1.9-16.2h85.3c5.8 0 11.4-.9 15.8-4.4 6.1-4.8 6.9-11.7 6.9-17.7 0-14.8-3.6-29.4-20.8-38.1-13.5-6.9-31.3-7.5-48.4-7.5-13.8 0-38.8 0-54.8 11.1-16.1 11.1-17.5 27.3-17.5 49.2 0 15.5.8 31.7 10.5 42.7 12.2 13.7 29.9 14.9 44.8 14.9h71.9c5.2-.2 9.5-4.5 9.5-9.7"/></g><g id="g930" transform="translate(119.077 701.739)"><path id="path932" class="st0" d="M552.6-619.8c0 3.1-.8 6.9-7.2 6.9h-46.1c-11.7 0-21.2 5.3-21.2 12v-12c.3-7.8 0-14.2 6.6-20.2 8.8-8 22.2-7.8 30.7-7.8 9.2 0 19.7.4 27.7 5.3 4.8 3 9.5 8.5 9.5 15.8m28.8 67.4v-10.4h-71.7c-11.9 0-25.5-1.3-29.6-13.9-1.1-3.6-1.9-11.1-1.9-16.2h85.3c5.8 0 11.4-.9 15.8-4.4 6.1-4.8 6.9-11.7 6.9-17.7 0-14.8-3.6-29.4-20.8-38.1-13.6-6.9-31.3-7.5-48.5-7.5-13.8 0-38.8 0-54.8 11.1s-17.4 27.3-17.4 49.2c0 15.5.8 31.7 10.5 42.7 12.2 13.7 29.9 14.9 44.9 14.9H572c5.1-.2 9.4-4.5 9.4-9.7"/></g><g id="g934" transform="translate(57.113 711.092)"><path id="path936" class="st0" d="M128.5-702.5h-13.3c-5.3 0-9.6 4.3-9.6 9.5v23.3h.1c.9-5.4 7.1-11.1 16.1-11.1h6.6c5.3 0 9.6-4.3 9.6-9.6v-2.6c0-5.2-4.2-9.5-9.5-9.5"/></g></g></svg>
