<svg xmlns="http://www.w3.org/2000/svg" width="79.999" height="19" viewBox="10.947 28.968 1558.085 295.101"><path style="fill:#00a1e4;fill-opacity:1;stroke:none;stroke-width:1.6311px;stroke-linecap:butt;stroke-linejoin:miter;stroke-opacity:1" d="M213.517 28.968v46.839h46.839V28.968Zm631.592 0v249.407h46.813V172.766s.323-39.66 36.08-38.685c0 0 18.085-1.555 24.818 12.798 2.346 5.003 2.66 12.11 2.812 21.334v110.161h48.435V148.711s0-51.038-59.486-52.337c0 0-37.707-1.624-52.66 24.379V28.968Zm269.897 66.07c-9.858 0-50.639 1.988-72.254 33.845 0 0-25.68 31.535-14.63 85.494 0 0 9.749 61.759 87.117 64.36 77.367 2.6 88.744-65.01 88.744-65.01s12.549-59.355-20.152-91.669c-8.98-8.873-18.613-15.155-28.369-19.152-19.905-8.155-38.27-7.83-38.27-7.83s-.778-.038-2.185-.038zm376.091.99a121.61 121.61 0 0 0-4.956.018c-17.788.418-38.819 4.875-54.94 21.137 0 0-24.053 19.83-23.728 67.29.325 47.459 18.853 66.314 18.853 66.314s19.18 27.595 64.364 27.595c0 0 61.112 2.312 76.064-56.525h-47.134s-6.175 19.503-27.63 18.853c-18.57-.563-35.177-10.395-38.892-40.635h115.606s6.825-71.843-41.934-96.222c0 0-11.715-7.426-35.677-7.825zm-167.501.29c-8.932.138-34.04 2.578-47.772 24.763V96.374h-47.459v182.002h47.459V167.888s-.325-33.155 34.458-34.458c0 0 29.905-1.628 29.905 29.255v115.689h46.81V145.458s1.1-19.895-19.199-36.052c-8.833-7.032-21.194-13.033-40.934-13.033 0 0-1.201-.09-3.262-.057zm-1312.649.306 68.454 181.753h46.039L194.3 96.624h-48.039l-44.04 120.902L57.384 96.623Zm202.57 0v181.753h46.839V96.622Zm67.654 0v181.753h47.64V171.768c0-22.555 14.058-37.783 35.56-37.987 30.687-.29 28.505 27.485 28.505 27.485v117.106h47.267V144.401c-5.528-48.867-60.357-47.78-60.357-47.78-16.155.17-28.423 3.98-36.46 8.875-7.062 4.3-11.588 9.62-14.515 14.66V96.621Zm268.734.188c-2.016-.047-3.167.007-3.167.007-83.454.513-78.065 62.139-78.065 62.139h45.709c1.282-23.626 26.704-25.419 26.704-25.419s17.46-1.543 26.704 11.554c11.81 19.172-15.53 22.907-24.91 23.885-32.867 3.08-49.559 10.013-49.559 10.013-32.097 11.812-30.557 48.017-30.557 48.017.401 22.44 9.923 35.288 21.545 42.412 14.623 8.962 41.367 8.96 41.367 8.96 23.705 0 38.747-9.183 47.489-17.397 1.83 10.295 3.868 17.397 3.868 17.397h43.4V164.864c0-62.462-56.424-67.717-70.532-68.054zm192.92.437c-22.583.078-39.814 9.62-55.114 26.215V97.588h-45.193v226.48h46.478v-72.157s19.772 27.22 58.547 25.935c0 0 45.195-1.028 61.115-31.843 15.92-30.815 14.635-46.991 14.635-46.991s3.852-27.473-6.933-53.41c0 0-9.243-30.561-49.045-45.195-8.842-2.165-16.965-3.19-24.492-3.163zm747.143 37.095c10.815.31 28.68 5.45 32.255 35.175h-68.309c6.089-29.288 27.677-34.458 27.677-34.458s3.46-.857 8.376-.717zm-375.515.615a20.74 20.74 0 0 1 1.765.102c18.53 1.301 40.635 4.877 41.284 55.912.65 51.035-39.984 48.109-39.984 48.109-7.478 0-44.863.975-43.562-53.962 1.138-48.07 32.639-50.345 40.497-50.162zm-383.809 2.916c8.238.135 41.18 3.6 41.035 50.359-.152 49.805-36.465 51.357-36.465 51.357s-44.68 6.935-45.449-48.532c-.769-55.465 39.032-53.157 39.032-53.157s.67-.047 1.848-.03zm-159.642 51.68c.247 24.97 2.355 44.195-28.115 54.657 0 0-32.61 9.245-32.867-15.15-.256-24.395 15.92-24.137 42.112-30.557 8.998-2.206 14.913-5.533 18.869-8.948z"/></svg>
