<svg xmlns="http://www.w3.org/2000/svg" viewBox="3 -7 32 32" width="32" height="32"><path d="M11.4.127c-4.16 1.96-6.44 5.786-6.12 10.22.28 3.593 1.8 6.02 5.08 7.98C19.08 23.6 29.44 14.92 25.56 5.54c-.92-2.287-2.96-4.293-5.48-5.413-2.16-1.027-6.56-.98-8.68 0zm3.76 4.526c-.08 1.074.12 1.96.6 2.567 1.04 1.353 1.36 1.213 1.52-.56l.12-1.494h2.8c2.76 0 2.8 0 2.92 1.26.12 1.167 0 1.307-.96 1.307-1.44 0-4.16 2.987-4.16 4.527 0 .886.2 1.073 1.2 1.073 1.08 0 1.2.14 1.2 1.4v1.4h-7.6v-1.4c0-1.26.12-1.4 1.2-1.4 2.16 0 1.92-1.213-.84-4.48-1.4-1.633-2.84-2.987-3.24-2.987-.48 0-.72-.373-.72-1.073 0-1.587.24-1.727 3.28-1.727h2.8l-.12 1.587zM27.88-.34c-.12.233-.08 3.453.04 7.233l.2 6.907h1.52c1.76 0 1.52.653 2.76-7.467 1.12-7.513 1.28-7-1.76-7-1.44 0-2.68.14-2.76.327zm.48 16.427c-.8.746-.88 1.073-.56 2.193.44 1.493 2.2 2.1 3.24 1.073.84-.793.72-3.08-.2-3.686-1.08-.654-1.4-.607-2.48.42z" fill="#7c0199"/></svg>
